<?xml version="1.0" encoding="utf-8"?>
<!-- Generator: Adobe Illustrator 18.1.1, SVG Export Plug-In . SVG Version: 6.00 Build 0)  -->
<svg version="1.1" xmlns="http://www.w3.org/2000/svg" xmlns:xlink="http://www.w3.org/1999/xlink" x="0px" y="0px"
	 viewBox="0 0 500 340" enable-background="new 0 0 500 340" xml:space="preserve">
<g id="goose_room">
	<g>
		<g>
			<path d="M294,256.1c-4.9-4.1-11-3.8-17-2.9c-3.7,0.6-9.4,3.3-12.3,5.7c-3,2.5-3.6,4.3-6.5,6.8c-3.1,0.9-7.6,2.1-10.5,2.5
				c-4,0.5-7.4,1.6-11.5,1.6c-3.9,0-8.3-1.1-10.7-4.3c-1.3-1.7-2.9-4.6-5.5-4c-3.8,0.8-4.1,7.3-3.1,10c2.3,6.3,7.7,7,13.8,6.5
				c2.2-0.2,4.2,0.1,6.4,0.2c2,0.1,3.9-0.2,5.9-0.2c1.4,0,4.1,0.3,5.6-0.2c0.1,0.1,0.3,0.1,0.4,0.2c-1.9,2.9-2.5,6.7-3,9.9
				c-0.6,3.8,0.2,8.1,2.1,11.1c1.8,3,3.8,4.6,7.1,6c3.2,1.4,9,2.3,12.4,1.5c3.5-0.8,6.9-2.2,9.4-4.6c1.1-1.1,2.5-2.3,3.6-3.4
				c1.3-1.3,2.2-2.5,3.4-3.9c1.2-1.5,4.1-5.7,5-7.4c0.9-1.6,3-4.3,3.7-5.8c2.5-4.8,4.2-9.1,5.2-14.6
				C298.5,263.1,296.7,258.3,294,256.1z M282.3,277.9c-1.8,3-3,6.1-5.5,8.5c-3.5,3.3-10.4,9.5-14.4,3.5c-1.8-2.7-1.2-5.2-0.6-8.2
				c0.3-1.7,0.6-2.6,0.8-4.2c0.9,0,1.3-0.3,2.2-1.5c0.8-1,2.5-2.8,4.3-4.8c1.6-1.8,5.2-4.1,7.3-5.2c2.8-1.4,8.7-2.8,9.2,1.4
				C286.2,270.8,284,275,282.3,277.9z"/>
		</g>
		<g>
			<path d="M244.3,261.3c-0.1-1.7-1.3-5.3-2.8-6.4c-1.5-1.8-3.2-1.8-4.3-2.3c-4.5-1.8-11.3,0-15.5,1.8c-7.4,3.1-16.3,8.3-21.6,14.2
				c-9.1,10.1-15.7,24-14.1,37.8c0.5,4.4,2,10.2,6.7,11.7c3.7,1.1,11.7,0.4,15.3-1.1c12.8-5.3,19-16.3,26-27.2
				c3.3-5.2,5.3-10.9,7.7-16.5C243.2,269.8,244.5,266.1,244.3,261.3z M229.1,275.1c-1.9,4.8-14.1,20.4-21.3,22.3
				c-8.6,2.2-7.6-6.3-4.8-11.2c3-5.2,7.4-11.2,12.1-15c3.2-2.6,11.6-11.2,15.9-9.6c1.6,0.6,1.4,3.4,1.4,4.2
				C232.3,268.1,230,273,229.1,275.1z"/>
		</g>
		<g>
			<path d="M160.4,273.9c5.5-5.7,11.8-11.6,19.6-13.5c6.3-1.6,13.1,0,11.5,8.1c-0.7,3.7-5.2,12.2-9.2,12.9c-5.2,0.9-6-4.2-4.6-7
				c-18,7.8-23.5,24.5-26.4,34.6c-2.7,9.3-1.5,17.2-7.1,23.9c-3.1,3.3-16.5,3-13.4-14.3c1.9-10.7,4-19.1,7.7-29.3
				c4.5-12.5,8.5-26.2,15.6-37.4c3-4.7,8.8-12.6,13.2-12.4c3.9,0.2,4.6,2.7,4.2,6.6c-0.4,4.8-2.1,6.1-4.1,10.4
				c-3.7,7.7-6.2,12.2-7.4,17.7C160.2,274.1,160.3,274,160.4,273.9z"/>
		</g>
		<g>
			<path d="M391.2,169.6c-4.3,5.2-9.7,11.1-12,13.6c-4.5,4.7-12,12-19.4,12.2c-6.6,0.2-10.5-5-11.8-11.8c3.2-1.2,10.6-5.3,14.1-8
				c3.9-3,7-6.3,9.3-10.6c1.6-2.9,2.6-8.6-0.2-12.5c-3.8-5.4-12.3-5.3-17.8-3.6c-7.9,2.5-11.7,5-16.5,11.6
				c-2.4,3.3-4.6,10.4-3.8,19.2c-6.7,3.9-13.2,7.6-17,10.2c-2.4,1.6-15.5,9.7-13.7,11.7c3,3.4,29.3-10.8,33.2-13.2
				c0,0,1.3,12.1,19,15.8c9,1.9,18.5-1.2,25-6.9c7.8-6.8,14.5-15.6,19-27.7C400,166.1,396.2,163.5,391.2,169.6z M348.8,165.6
				c1.9-3.7,5.9-8.2,10.7-7.4c3.5,0.6,1.6,5.4,0,7.3c-2.4,2.8-5.8,4.9-6.2,5.2c-2.2,1.6-6,3.4-7.2,3.5
				C345.8,172.9,346.9,169.2,348.8,165.6z"/>
		</g>
		<g>
			<path d="M305,174.4c1.6-0.8,13.7-6.6,19.3-13.4c5.6-6.9,6.4-14.1-0.5-20.7c-5.6-5.3-14.5-2.1-19.6,2.3
				c-6.6,5.6-13.3,12.3-12.1,26.7c-8,3.1-14.8,0.8-21.8-3.9c-6.5-4.4-4.8,2.4-2.2,6.5c3.9,6.1,10.4,6.9,17,6.6
				c1.7-0.1,6.7-0.7,8.9-1.6c1.4,4.3,5.2,8.9,7.9,11.9c3.3,3.7,8.9,10.6,8.7,16.6c-0.1,6.1-5.7,9.7-10.7,12.3
				c-3.1,1.6-15.1,5.4-14.8,1.4c0.3-3.1,15.5-16.5,0.4-11.4c-5.6,1.9-12.8,10.7-13.4,15.7c-1,8.5,8.2,11.8,15,11.9
				c10.6,0.1,19.2-1.7,24.6-4.4c11.6-5.8,15.5-14.1,16.6-19.5C332.8,191.2,310,179.6,305,174.4z M299.9,167.1c-1-2.1-0.2-6.8,1-9.5
				c1.6-3.5,4.5-6.7,8.2-9.1c2.5-1.6,9.3-3.4,6.7,2.6C311.6,161.3,299.9,167.1,299.9,167.1z"/>
		</g>
		<g>
			<path d="M286.7,156.3c-3.4-3-7.9-4.3-11.9-1.7c-1.1-8.8-11.8,1.7-15.5,3.2c-6.9,2.9-13.2,2.8-20.5,3.2c-3,0.1-7.1-0.4-6.9,3.3
				c0.1,4,3.5,2.9,6.3,2.7c2.8-0.3,9.3-0.6,12.3-0.4c-1.1,1.1-2.5,2.5-3,3.2c-7.1,8.5-10.7,22.7-9.7,33.2c0.5,4.7,3.8,10.6,8.7,12.7
				c4.7,2,11,1.7,15.6-0.4c10.3-4.5,20-14.1,23.9-24.6c2.7-7.4,4.2-15.4,4.2-23.3C290.1,162.8,290.2,159.4,286.7,156.3z
				 M270.8,192.4c-3.2,3.5-10.2,7.5-15.2,4.8c-3.8-2-3.7-8-2.9-11.6c1.3-5.9,5-9.7,9.2-14c1.8-1.9,7.7-3.6,9.3-6c0.3,0,0.7,0,1,0
				C287.5,165.8,276,186.5,270.8,192.4z"/>
		</g>
		<g>
			<path d="M236.4,163.3c-3.9-4-8.2-7.2-12.1-1.8c-0.5,0.6-0.9,1.3-1.2,1.9c-1.3-2.2-3.2-4-5.4-4.9c-3-1.2-5.5,0.7-8.2,1.9
				c-4.4,2.1-8.8,2.1-13.5,3.6c-5.5,1.8-10.2,3.2-15.8,5.1c-4.5,1.5-9.6,3.9-14.1,5.3c-3.1,1-6,3.6-6.5,7.1c-0.5,4,1.4,4.5,4.3,3.5
				c4.6-1.7,9.4-3,13.9-5.1c2.5-1.1,9.2-3.6,12.3-4.2c-0.6,0.7,0,0-1.4,1.8c-4,5.3-7.1,11.1-8.6,17.5c-1.5,6.6-3.2,15.3-1.3,22
				c4.2,14.6,24.7,7.4,34.5-1.4c14.2-12.7,18.9-24,23.1-37.7C238.3,172.3,241.2,168.2,236.4,163.3z M213.1,196.2
				c-3.2,4.8-10.1,12.3-13.9,11.8c-4.2-0.6-5.6-5.8-4.8-9.8c2.1-10.4,9.5-20.4,20.5-21.8c1-0.1,3.5,0.7,6.7,0.2
				C220.8,183,216.3,191.5,213.1,196.2z"/>
		</g>
		<g>
			<path d="M176.1,153.5c-1.8-0.2-16.3,8.7-18.1,8.8c-3.7,0.2-5.3,12.3-7.2,18.3c-1.2,0.4-26.4,11.1-37.8,23.3
				c-8.9,9.6-15.3,23.2-11.2,36.6c1.6,5.2,11,16.7,27.3,12.6c15.1-3.8,25.3-16.2,29.4-31c3.2-11.5,4.4-23.6,5.2-30.5
				c0.5-4.1,2.2-14.3,4-19.2C169,168.9,170.9,163.6,176.1,153.5z M142.2,216.2c-2.2,6.1-6.9,16.5-14.4,17.2c-5,0.4-8.1-3.8-8-8.6
				c0.1-7,3.3-12.4,7.9-17.4c2.5-2.8,14-11.5,22.2-16.3C147.4,199.6,144.1,211,142.2,216.2z"/>
		</g>
		<g>
			<path d="M198.4,142.2"/>
		</g>
		<g>
			<path d="M128.7,144"/>
			<g>
				<path d="M128.7,145.5c1.9,0,1.9-3,0-3C126.7,142.5,126.7,145.5,128.7,145.5L128.7,145.5z"/>
			</g>
		</g>
		<path d="M163.9,116c-12.4-3-23.8,2.4-31.3,12.2c-3.4,4.5-5.9,9.7-6.6,15c-5.6,2.8-11.2,5.7-16.5,9.1c-3.3,2.1-6.5,4.2-9.1,7.1
			c-0.8,0.9-0.3,2.6,1.1,2.6c8.6-0.2,17.2-1.1,25.8-1.6c-3.3,5.6-8,10.6-9.8,17c-0.3,1.1,0.8,2.1,1.8,1.8c3.5-0.8,7.2-4.1,10.2-6
			c3.5-2.3,7.2-4.2,10.8-6.3c5,1.6,10.6,1.5,16.1,0.5c12.4-2.2,20.8-11.5,23.4-23.5c0.1-0.2,0.1-0.5,0.2-0.8
			c0.1-0.4,0.1-0.8,0.1-1.2C181.4,130,176.6,119.1,163.9,116z M165.4,139.2c-1.5,7.9-5.3,12.5-13.1,13.8c-0.7,0.1-4.9,0.6-6.8,0.2
			c-3.4-0.7-5.2-5.4-5.1-7.5c0.3-4.7,5.9-12.3,11.3-14.6C158.5,128.2,166.6,131.1,165.4,139.2z"/>
		<g>
			<path d="M174.6,80.9c-7,3.2-21.8,27.6-22.8,29.4c-1.6-0.4-11.9-5.7-16.4-7.2c-1-0.3-7.2,7.6-7,8.5c0.2,0.9,65.2,32.1,66,32.6
				c0.6-1.8,2.4-6.8,2.6-9.5c-1.9-1.7-12.5-7.7-14.4-8.6c3.8-7.2,11.8-20.8,14.4-33.1C190.9,83.7,178.7,81,174.6,80.9z"/>
		</g>
		<g>
			<path d="M131.3,109.6"/>
		</g>
		<g>
			<path d="M154.8,108.3"/>
		</g>
		<g>
			<path d="M305.2,275.8c-3.6,1.9-8.7,2.5-12.7,2.8c-6,0.4-27.8-0.9-27.9-10.3c-0.1-4.5,5-1.9,8.1-1.2c5.6,1.2,11.9,2.3,17.5,2.6
				c6,0.4,12.6-3,15.5-4.8c4.8-3,9.8-8.3,12.6-8.5c10.1-0.7,5.9,11.3,2.5,18.5c2.8-6,9.6-11,17.4-10.9c6.1,0,5.3,4.9,5.6,9.6
				c2.3-2,4.2-6.1,6-8.6c3.5-5.1,6.3-11.1,11.2-15.1c7.3-6,11.3,0.4,10.4,7.8c-0.8,6.6-2.1,11.5-3.8,17.8c-1.1,3.9-2.2,6.5-2.5,11.5
				c-0.1,1.5,1.1,2.7,3.5,0.6c5-4.5,9.1-10.1,13.7-15c1.4-1.5,17.9-15.4,15.5-6.3c-0.9,3.3-4.8,9.4-8.3,13.7
				c-2.7,3.2-8.3,10.7-11.2,15c-10.7,16.1-24.1,22.9-26.4,8.2c-1.2-7.4,5.2-28.9,6.1-32.1c0.6-2.2-8.1,10.8-10.2,13.8
				c-2,2.9-6.4,9.7-10,14.5c-1,1.3-3.3,1.7-5.3,0.5c-3.6-2.1,0.9-11.8,1.7-14.3c0.9-3,2.5-10.9-2.4-9c-5.5,2.1-10.9,19-15,28.2
				c-1.7,3.8-6.3,5.9-10.7,3.1c-4.6-3-1.7-11.5,0-15.4c3.8-8.7,4.4-9.3,8-22.2C314,270.2,307.3,274.7,305.2,275.8z"/>
		</g>
		<path d="M161.4,135.5c-1.8-2.1-6.5-1.5-9.6,0c-3.8,1.9-7.5,7.6-6.2,10.7c1.8,4.2,6.7,4.2,10.4,2
			C160.9,145.2,164.2,138.8,161.4,135.5z"/>
	</g>
</g>
<g id="house">
	<path d="M463.3,126.8C382,80.8,255.7,7.1,251.9,4.8c-1.5-0.9-3.5-0.7-4.7,0c-0.9,0.6-130.1,76.9-211.4,122.9
		C3.4,146.1-6,150,19,150c23.4,0,35.3,0,41,0c0,0,0,129.3,0,171.3c0,8.3,4.2,10.8,10.4,10.8c10.5,0,44.2-3.5,50.3-8.8
		c3.7-3.2,7.3-11.1,2.7-12c-1.5-0.3-30,3.9-41.9,5.2c-5.7,0.6-7.5-1.3-7.5-8.6c0-21,0-104.1,0-151.8c0-14.6,0.2-19.2-7.6-19.2
		c-6.3,0-10,0.1-17.4,0.1c-3.9,0-0.9-2.4,1.1-3.6c59.5-34.4,180.3-104,197.4-113.7c1.3-0.7,2.7-0.7,4,0
		C269,29.7,385.1,95,444.7,129.2c10.9,6.2,13.3,8.1,3.5,8c-2.8,0-8.8,0.2-15.8,0.5c-7.8,0.3-7.3,3-7.3,17.6c0,47.7,0,87.8,0,108.8
		c0,7.4-2.7,13-13.2,13.9c-4,0.3-13.8,3.2-17.3,5.5c-4,2.6-10.3,9.4-7.3,13.2c1.9,2.5,33.5-4.7,42.5-7c6.1-1.6,9.3-4.3,9.3-10.2
		c0-42,0-130.3,0-130.3c5.7,0,17.6,0,41,0C505,149,495.6,145.1,463.3,126.8z"/>
</g>
</svg>
